<svg viewBox="0 0 1024 1024" xmlns="http://www.w3.org/2000/svg">
  <title>Heimdall horn base</title>
  <g fill="#000000" transform="translate(12 18) scale(0.78)">
    <path d="M458.542 217.663C481.755 218.11 504.603 219.462 525.839 230.012C555.014 244.507 546.545 268.947 545.216 295.536C544.465 309.75 544.183 323.985 544.371 338.218C544.444 346.823 545.046 373.75 547.024 381.559C548.457 387.218 554.491 393.806 556.003 405.846C556.94 413.543 556.567 421.343 554.901 428.916C551.828 442.692 552.347 442.07 554.946 456.07C559.006 477.715 564.254 499.118 570.665 520.186C612.641 655.086 701.279 761.609 815.394 842.482C841.766 861.525 869.381 878.774 898.055 894.13C919.933 892.618 931.732 896.53 945.196 914.006C983.27 928.934 1020.14 941.602 1060.32 949.605C1072.65 952.06 1087.12 954.277 1095.76 964.141C1100.9 969.921 1103.42 977.569 1102.73 985.272C1098.89 1029.77 994.23 1039.76 960.204 1042.41C943.751 1043.69 926.515 1043.06 910.026 1043.51C899.506 1044.57 893.61 1050.38 882.209 1049.46C865.878 1048.14 860.6 1040.67 843.291 1039.28C688.518 1022.43 547.572 945.129 436.035 838.619C361.007 766.746 302.054 679.793 263.059 583.493C256.617 567.452 250.612 551.238 245.051 534.871C241.549 524.403 238.206 513.864 234.76 503.383C234.017 501.123 229.325 495.462 227.704 493.026C224.672 488.468 222.351 483.534 220.643 478.324C218.363 471.183 217.574 463.65 218.325 456.191C219.4 446.355 220.061 446.295 216.897 436.544C211.928 421.256 206.769 406.03 201.423 390.87C196.103 375.765 183.122 345.011 182.9 330.378C182.7 317.206 188.74 306.018 197.746 296.733C237.59 255.661 340.255 230.566 395.439 222.58C416.52 219.53 437.249 218.073 458.542 217.663ZM260.851 513.801C278.345 565.668 295.06 607.698 321.95 656.029C395.08 787.479 512.731 893.457 646.961 959.996C652.08 962.518 657.223 964.986 662.385 967.411C717.542 992.032 792.163 1015.59 853.13 1017.9C876.588 996.146 889.985 957.32 890.983 925.799C891.093 922.137 891.032 918.469 890.793 914.814C730.847 827.916 600.052 695.878 547.525 518.401C543.374 504.429 539.841 490.28 536.937 475.996C536.495 473.882 534.28 461.678 533.859 461.097C522.339 469.978 509.944 477.66 496.864 484.024C437.925 512.603 347.063 526.753 282.192 517.728C275.022 516.743 267.901 515.433 260.851 513.801ZM214.76 361.749C220.948 382.076 229.037 404.593 236.053 424.791C237.782 429.859 239.59 435.6 241.449 440.564C311.242 467.187 470.489 437.516 524.152 383.184C522.9 358.261 521.513 333.524 523.077 308.603C523.198 306.656 523.807 302.121 522.794 300.603C455.424 351.55 328.425 379.088 244.64 368.215C236 367.094 222.78 364.425 214.76 361.749ZM909.217 913.442C910.956 951.252 897.112 997.897 871.548 1026.26C878.97 1029.39 883.482 1030.11 891.558 1027.75C913.332 1018.42 935.455 947.076 927.746 924.396C925.303 917.202 915.885 914.581 909.217 913.442ZM922.688 1021.39C965.819 1021.56 1001.21 1018.8 1043.03 1006.82C1049.32 1004.76 1056.55 1002.47 1062.33 999.845C1069.27 996.691 1083.86 990.28 1080.85 980.704C1080.13 978.426 1077.15 976.063 1074.9 975.316C1060.98 971.183 1045.87 968.586 1031.75 965.023C1003.07 957.779 974.863 948.742 947.315 937.959C945.227 969.205 938.639 994.107 922.688 1021.39ZM442.188 239.717C386.279 242.678 328.885 255.172 276.741 275.318C257.325 282.819 225.613 297.764 212.426 312.812C181.186 348.463 274.149 349.139 289.024 348.865C309.649 348.194 328.461 347.118 349.11 343.684C390.976 336.722 430.516 326.03 469.144 307.722C481.852 301.7 543.7 270.816 519.504 251.558C504.717 239.788 462.281 237.879 442.188 239.717ZM534.159 401.503C478.874 452.46 368.645 473.341 295.824 470.163C276.271 469.31 255.848 466.94 237.446 460.295C238.414 469.428 240.402 477.108 245.714 484.794C254 495.213 274.378 497.056 286.819 498.466C357.967 506.528 466.551 489.091 523.859 443.285C531.685 437.03 535.267 431.626 536.39 421.503C536.964 416.333 537.431 405.796 534.159 401.503Z"/>
  </g>
</svg>
